# xmcd
#
# Track frame offsets:
# 150
# 14194
# 27580
# 38074
# 54600
# 63842
# 73125
# 95204
# 105586
# 118368
# 130300
#
# Disc length: 1830 seconds
#
# Revision: 0
# Processed by: cddbd v1.4PL0 Copyright (c) Steve Scherf et al.
# Submitted via: Axialis_AX_CDPlayer 2.6
#
DISCID=a907240b
DTITLE=Dave van Ronk - No Dirty Names
DYEAR=1900
DGENRE=
TTITLE0=One meatball
TTITLE1=One of these days
TTITLE2=Keep it clean
TTITLE3=Zen Koan's gonna rise again
TTITLE4=Freddie
TTITLE5=Statesboro Blues
TTITLE6=Midnight hour
TTITLE7=Spoonful
TTITLE8=Mean old world
TTITLE9=Blues chanta
TTITLE10=Old man
EXTD=
EXTT0=
EXTT1=
EXTT2=
EXTT3=
EXTT4=
EXTT5=
EXTT6=
EXTT7=
EXTT8=
EXTT9=
EXTT10=
PLAYORDER=
